<?xml version="1.0" encoding="UTF-8"?><svg version="1.1" width="800px" height="162px" viewBox="0 0 800.0 162.0" xmlns="http://www.w3.org/2000/svg" xmlns:xlink="http://www.w3.org/1999/xlink"><defs><clipPath id="i0"><path d="M800,0 L800,162 L0,162 L0,0 L800,0 Z"></path></clipPath><clipPath id="i1"><path d="M543.144146,34.6987952 L543.144146,82.5540486 L574.896712,82.5540486 L574.896712,98.4280405 L543.144146,98.4280405 L543.144146,138.148197 C543.144146,139.196095 543.358891,140.195857 543.795785,141.15859 C544.228976,142.125026 544.806565,142.965567 545.517443,143.680211 C546.235726,144.394855 547.072489,144.961387 548.035137,145.39832 C548.994082,145.842658 550.004862,146.053719 551.05637,146.053719 L586.700254,146.053719 L586.700254,90.4669762 C586.700254,89.4116723 586.911296,88.4008023 587.344487,87.4380689 C587.777679,86.4753356 588.366375,85.6422009 589.066146,84.9275566 C589.788132,84.2129122 590.61749,83.6463806 591.580137,83.2094478 C592.542785,82.7799206 593.549863,82.5540486 594.605073,82.5540486 L642.193194,82.5540486 C643.248404,82.5540486 644.251779,82.7799206 645.203319,83.2094478 C646.173372,83.6463806 647.01754,84.216615 647.765443,84.9275566 C648.513346,85.6459038 649.102043,86.4753356 649.527829,87.4380689 C649.968426,88.3970995 650.190575,89.4042667 650.190575,90.4595705 L650.190575,130.179727 L602.572834,130.179727 L602.572834,138.114872 C602.572834,139.177581 602.783876,140.188451 603.224473,141.154887 C603.657664,142.117621 604.23155,142.954458 604.938726,143.669102 C605.657009,144.391153 606.493773,144.96509 607.45642,145.402023 C608.411663,145.835253 609.422443,146.057422 610.473951,146.057422 L663.252964,146.057422 L663.252964,90.4632733 C663.252964,89.4079695 663.471411,88.3970995 663.904603,87.4417717 C664.337794,86.4790384 664.915383,85.6384981 665.629964,84.9238537 C666.33714,84.2129122 667.173903,83.6352722 668.13655,83.205745 C669.095496,82.7688122 670.109978,82.5577514 671.157783,82.5577514 L718.749607,82.5577514 C719.812222,82.5577514 720.800787,82.7836234 721.77084,83.2131506 C722.729785,83.6500835 723.577655,84.2203178 724.321856,84.9312594 C725.069759,85.6496066 725.662158,86.4790384 726.087944,87.4417717 C726.528541,88.4008023 726.746988,89.4079695 726.746988,90.4632733 L726.746988,107.503654 L710.874408,107.503654 L710.874408,106.418727 C710.874408,105.367126 710.648556,104.363662 710.215364,103.404631 C709.782173,102.445601 709.193477,101.590249 708.493706,100.853388 C707.775422,100.109121 706.946064,99.5203725 705.976012,99.0871425 C705.017066,98.6613181 704.002584,98.4354461 702.954779,98.4354461 L687.037769,98.4354461 C685.982559,98.4354461 684.971778,98.6613181 684.009131,99.0871425 C683.053888,99.5240753 682.206017,100.112824 681.498842,100.853388 C680.787963,101.590249 680.210375,102.445601 679.777183,103.404631 C679.343992,104.363662 679.11814,105.367126 679.11814,106.418727 L679.11814,138.074141 C679.11814,139.114633 679.343992,140.1218 679.777183,141.080831 C680.210375,142.039861 680.791666,142.895213 681.498842,143.635777 C682.20972,144.376341 683.053888,144.96509 684.009131,145.402023 C684.968076,145.827847 685.982559,146.050016 687.037769,146.050016 L702.954779,146.050016 C704.002584,146.050016 705.013364,145.827847 705.976012,145.402023 C706.946064,144.961387 707.779125,144.372638 708.493706,143.635777 C709.197179,142.895213 709.782173,142.039861 710.215364,141.080831 C710.648556,140.1218 710.874408,139.114633 710.874408,138.074141 L710.874408,136.981808 L726.739583,136.981808 L726.739583,154.018486 C726.739583,155.070087 726.521136,156.080957 726.08054,157.04369 C725.651051,157.999018 725.058652,158.839558 724.314451,159.546797 C723.57025,160.27255 722.726082,160.835379 721.763435,161.276014 C720.797084,161.705542 719.804817,161.927711 718.742202,161.927711 L671.150378,161.927711 C670.639435,161.927711 670.139598,161.868466 669.647167,161.775895 L650.186873,161.775895 L650.186873,161.927711 L594.597668,161.927711 C594.079319,161.927711 593.583185,161.868466 593.087051,161.775895 L574.893009,161.775895 L574.893009,161.927711 L535.157872,161.927711 C534.106365,161.927711 533.10299,161.705542 532.140342,161.279717 C531.177694,160.842784 530.344634,160.268847 529.630053,159.546797 C528.922877,158.835856 528.356396,157.995315 527.912097,157.036285 C527.478905,156.077254 527.271566,155.062681 527.271566,154.007378 L527.271566,34.6987952 L543.144146,34.6987952 Z M333.083301,34.6987952 C334.134809,34.6987952 335.145589,34.9172616 336.097129,35.3541944 C337.059777,35.7837216 337.91135,36.3650644 338.651848,37.0834116 C339.407156,37.8054617 339.99215,38.6385963 340.425342,39.6050325 C340.862236,40.5714686 341.07698,41.5860415 341.07698,42.6413454 L341.07698,63.8807243 C341.07698,64.9360282 340.895558,66.4171564 340.466069,67.3761869 C340.029175,68.3463259 339.407156,69.6608272 338.655551,70.6531832 C338.040937,71.4789122 294.547772,133.701109 294.11458,134.663843 C293.677686,135.622873 293.462942,136.637446 293.462942,137.681642 L293.462942,138.148197 C293.462942,139.196095 293.677686,140.195857 294.11458,141.15859 C294.547772,142.125026 295.121658,142.965567 295.828834,143.680211 C296.543414,144.394855 297.387583,144.961387 298.346528,145.39832 C299.305473,145.842658 300.312551,146.053719 301.367761,146.053719 L352.95087,146.053719 L352.95087,90.4669762 C352.95087,89.4116723 353.158209,88.4008023 353.595103,87.4380689 C354.028295,86.4753356 354.609586,85.6422009 355.316762,84.9275566 C356.031342,84.2129122 356.868106,83.6463806 357.827051,83.2094478 C358.785996,82.7799206 359.800479,82.5540486 360.848284,82.5540486 L408.440107,82.5540486 C409.49902,82.5540486 410.502395,82.7799206 411.46134,83.2094478 C412.420285,83.6463806 413.275561,84.216615 414.019761,84.9275566 C414.763962,85.6459038 415.352658,86.4790384 415.78585,87.4380689 C416.219041,88.3970995 416.437488,89.4042667 416.437488,90.4595705 L416.437488,130.179727 L368.82345,130.179727 L368.82345,138.114872 C368.82345,139.177581 369.030789,140.188451 369.467683,141.154887 C369.904577,142.117621 370.478464,142.954458 371.193044,143.669102 C371.907625,144.391153 372.748091,144.96509 373.699631,145.402023 C374.669684,145.835253 375.669356,146.057422 376.728269,146.057422 L428.303973,146.057422 L428.303973,90.470679 C428.303973,89.4153751 428.515015,88.4045051 428.955611,87.4417717 C429.392505,86.4790384 429.958987,85.6459038 430.673567,84.9312594 C431.380743,84.216615 432.221209,83.6500835 433.191261,83.2131506 C434.150207,82.7836234 435.149879,82.5577514 436.208792,82.5577514 L483.800615,82.5577514 C484.855825,82.5577514 485.855498,82.7836234 486.818146,83.2131506 C487.773388,83.6500835 488.632366,84.2203178 489.372865,84.9312594 C490.120768,85.6496066 490.705762,86.4790384 491.138953,87.4343661 C491.572145,88.3933966 491.797997,89.4079695 491.797997,90.4632733 L491.797997,161.916602 L475.929119,161.916602 L475.929119,106.418727 C475.929119,105.367126 475.703267,104.363662 475.266373,103.404631 C474.833181,102.438195 474.259295,101.590249 473.544714,100.853388 C472.826431,100.101715 471.99337,99.5129669 471.034425,99.0797369 C470.071777,98.6539125 469.068402,98.4280405 468.00949,98.4280405 L452.096182,98.4280405 C451.03727,98.4280405 450.026489,98.6539125 449.067544,99.0797369 C448.104897,99.5166697 447.268133,100.105418 446.553553,100.853388 C445.838972,101.590249 445.265086,102.434492 444.828192,103.404631 C444.398703,104.359959 444.176553,105.367126 444.176553,106.418727 L444.176553,155.381124 C443.658204,161.550023 437.700896,161.894385 437.700896,161.894385 L437.693491,161.920305 L428.303973,161.920305 L428.303973,161.76849 L416.437488,161.76849 L416.437488,161.920305 L360.848284,161.920305 C360.33734,161.920305 359.833801,161.86106 359.34137,161.76849 L341.07698,161.76849 L341.07698,161.920305 L285.49518,161.920305 C284.436268,161.920305 283.432893,161.709244 282.473947,161.272312 C281.503895,160.842784 280.670834,160.261442 279.956253,159.554203 C279.249078,158.835856 278.675191,157.999018 278.242,157.036285 C277.805106,156.077254 277.590361,155.066384 277.590361,154.01108 L277.590361,133.07163 C277.590361,132.00892 277.764379,129.953855 278.201273,128.998527 C278.634464,128.035794 279.337937,126.806457 279.959956,125.954809 C280.563462,125.143891 324.126975,62.8846656 324.552761,61.9219322 C324.98225,60.955496 325.208102,59.9409232 325.208102,58.8782137 L325.208102,58.6116106 C325.208102,57.5489011 324.985953,56.5417339 324.552761,55.5752977 C324.126975,54.6125643 323.549386,53.7461043 322.834805,53.009243 C322.120225,52.2501648 321.287164,51.6577135 320.317111,51.2281863 C319.361868,50.7912535 318.351088,50.5653814 317.306986,50.5653814 L277.594064,50.5653814 L277.594064,34.6987952 Z M136.460656,85.0745941 C148.123306,85.0707402 158.12427,92.0895354 162.558005,102.132909 L164.749812,107.135319 L169.842824,105.143993 C173.659692,103.653873 177.763788,102.813391 182.060656,102.813391 C191.350294,102.815319 199.710776,106.564716 205.80427,112.646644 C211.890053,118.743993 215.635595,127.10062 215.639451,136.394114 L215.627884,136.625439 L215.579692,137.440861 L215.444752,141.855319 L219.687643,143.087126 C228.034631,145.527608 234.432704,152.488572 236.096318,161.134355 L119.261619,161.134355 L8.68812541,161.136282 C11.8360772,147.324234 24.1580049,137.012909 38.8992097,137.018692 C44.9714989,137.022547 50.5714989,138.776764 55.3695712,141.791704 L61.5189688,145.658692 L63.8168001,138.776764 C67.6066796,127.461102 78.2630652,119.281825 90.8413784,119.289535 C94.1936676,119.289535 97.3898122,119.896764 100.437523,120.97821 L108.593668,123.877487 L108.04427,115.241343 C107.988366,114.454837 107.938246,113.907367 107.947884,113.587367 C107.947884,105.697246 111.12668,98.6032704 116.292945,93.4292945 C121.474631,88.2553186 128.560896,85.0803788 136.460656,85.0745941 Z M119.292463,40.8683306 C153.177764,40.8683306 182.266921,62.1618246 194.802824,92.538692 C190.76427,91.3435113 186.490535,90.6784511 182.060656,90.6784511 C178.078005,90.6784511 174.230294,91.2451981 170.569571,92.2264029 C163.58933,80.6851981 150.941619,72.9435113 136.462583,72.9415836 C116.173427,72.9435113 99.4794507,88.072186 96.9213784,107.659656 C94.9416194,107.349294 92.917523,107.154596 90.8433061,107.154596 C75.5584869,107.160379 62.3054748,115.757969 55.6105351,128.376764 C50.4886073,126.16568 44.8461977,124.879897 38.9011375,124.883752 C38.3343905,124.883752 37.777282,124.941584 37.2143905,124.964716 C37.7676435,78.4336318 74.28427,40.8683306 119.292463,40.8683306 Z M152.803788,12.4114631 C156.402824,26.9367643 170.577282,33.9767643 184.331499,28.0606198 C198.097282,22.1579692 205.948848,29.0707402 201.798487,43.459174 C197.653909,57.8514631 206.415354,71.052427 221.268366,72.7931499 C236.144511,74.5512222 239.487162,84.4731499 228.695836,94.8500173 C226.652463,96.8220655 225.02933,98.9907402 223.832222,101.261584 C221.943065,101.915078 219.857282,102.572427 217.92186,103.158451 C214.324752,81.1941137 203.42933,60.2842342 185.436077,44.4230294 C144.053909,7.91989687 80.9136676,11.8909812 44.4201736,53.2673667 C27.8418604,72.0683306 19.6895712,95.3473667 19.5276435,118.589776 L14.5580049,116.249535 C12.9560772,113.450499 10.7025832,110.869294 7.79945071,108.698692 C-4.19283844,99.7579692 -2.12440471,89.4929089 12.4105351,85.8919451 C26.9396917,82.3141137 33.9874025,68.1145957 28.0635471,54.3623065 C22.1531857,40.6042342 29.0833061,32.7623065 43.4582459,36.9126679 C57.8389688,41.0533908 71.0360772,32.305439 72.7902941,17.425439 C74.5348724,2.5743547 84.464511,-0.770223616 94.8433061,10.00568 C105.222101,20.7950776 121.037041,19.8003788 129.98933,7.80616193 C138.935836,-4.19962121 149.21439,-2.11962121 152.803788,12.4114631 Z M392.652684,98.4354461 L376.735674,98.4354461 C375.673059,98.4354461 374.677089,98.6613181 373.707036,99.0871425 C372.744388,99.5240753 371.903923,100.112824 371.193044,100.853388 C370.482166,101.590249 369.90828,102.441898 369.475088,103.404631 C369.038194,104.363662 368.82345,105.367126 368.82345,106.418727 L368.82345,114.309438 L400.564908,114.309438 L400.564908,106.418727 C400.564908,105.367126 400.346461,104.367365 399.91327,103.404631 C399.480078,102.445601 398.902489,101.590249 398.187909,100.853388 C397.47703,100.109121 396.640267,99.5203725 395.673917,99.0871425 C394.722377,98.6613181 393.707894,98.4354461 392.652684,98.4354461 Z M626.405771,98.4354461 L610.492463,98.4354461 C609.433551,98.4354461 608.426473,98.6613181 607.467528,99.0871425 C606.50488,99.5240753 605.664414,100.112824 604.949834,100.853388 C604.23155,101.590249 603.661367,102.441898 603.228175,103.404631 C602.787579,104.363662 602.576537,105.367126 602.576537,106.418727 L602.580239,114.309438 L634.317995,114.309438 L634.317995,106.418727 C634.317995,105.367126 634.106953,104.367365 633.666356,103.404631 C633.229462,102.445601 632.655576,101.590249 631.944698,100.853388 C631.230117,100.109121 630.397056,99.5203725 629.434409,99.0871425 C628.475463,98.6613181 627.460981,98.4354461 626.405771,98.4354461 Z M777.829497,40.4819277 C790.055823,40.4819277 800,50.4325981 800,62.6506024 C800,74.8795777 790.059481,84.8192771 777.829497,84.8192771 C765.606827,84.8192771 755.662651,74.8795777 755.662651,62.6506024 C755.662651,50.4325981 765.606827,40.4819277 777.829497,40.4819277 Z M777.829497,43.0893617 C767.040486,43.0893617 758.2703,51.8697952 758.2703,62.6506024 C758.2703,73.4387236 767.040486,82.2118431 777.829497,82.2118431 C788.618508,82.2118431 797.388694,73.4387236 797.388694,62.6506024 C797.388694,51.8661383 788.618508,43.0893617 777.829497,43.0893617 Z M775.724096,56.2120482 L775.724096,58.0163855 L770.895181,58.0163855 L770.895181,71.5913253 L768.990361,71.5913253 L768.990361,58.0163855 L764.154217,58.0163855 L764.154217,56.2120482 L775.724096,56.2120482 Z M780.191566,56.2159036 L783.806024,64.7710843 L787.293976,56.2159036 L789.954217,56.2159036 L789.954217,71.5913253 L788.038554,71.5913253 L788.038554,58.3363855 L784.268675,67.3503614 L783.112048,67.3503614 L779.363855,58.3363855 L779.363855,71.5913253 L777.571084,71.5913253 L777.571084,56.2159036 L780.191566,56.2159036 Z"></path></clipPath></defs><g clip-path="url(#i0)"><g clip-path="url(#i1)"><polygon points="0,0 800,0 800,161.927711 0,161.927711 0,0" stroke="none" fill="#21438A"></polygon></g></g></svg>