<?xml version="1.0" encoding="UTF-8"?><svg version="1.1" width="538px" height="481px" viewBox="0 0 538.0 481.0" xmlns="http://www.w3.org/2000/svg" xmlns:xlink="http://www.w3.org/1999/xlink"><defs><clipPath id="i0"><path d="M538,0 L538,481 L0,481 L0,0 L538,0 Z"></path></clipPath><clipPath id="i1"><path d="M277.309325,350.73539 L277.309325,399.35634 L309.572808,399.35634 L309.572808,415.484319 L277.309325,415.484319 L277.309325,455.840008 C277.309325,456.904673 277.527524,457.920431 277.971448,458.898568 C278.41161,459.880468 278.998492,460.734457 279.720809,461.460536 C280.45065,462.186614 281.300877,462.762211 282.279015,463.206135 C283.25339,463.657583 284.280434,463.87202 285.348861,463.87202 L321.566276,463.87202 L321.566276,407.395876 C321.566276,406.323687 321.780714,405.296643 322.220876,404.318505 C322.661038,403.340368 323.259206,402.493903 323.970237,401.767824 C324.70384,401.041745 325.546543,400.466149 326.52468,400.022225 C327.502818,399.585826 328.5261,399.35634 329.598289,399.35634 L377.952131,399.35634 C379.02432,399.35634 380.04384,399.585826 381.010691,400.022225 C381.996353,400.466149 382.854104,401.045507 383.614042,401.767824 C384.373979,402.497665 384.972148,403.340368 385.404785,404.318505 C385.852471,405.292881 386.078195,406.316163 386.078195,407.388352 L386.078195,447.744041 L337.694256,447.744041 L337.694256,455.806149 C337.694256,456.885863 337.908694,457.912907 338.35638,458.894806 C338.796542,459.872943 339.379662,460.723171 340.098217,461.449249 C340.828058,462.182852 341.678285,462.765973 342.656422,463.209897 C343.627035,463.650058 344.654079,463.875782 345.722506,463.875782 L399.350766,463.875782 L399.350766,407.392114 C399.350766,406.319925 399.572728,405.292881 400.01289,404.322268 C400.453052,403.34413 401.039934,402.490141 401.766013,401.764062 C402.484568,401.041745 403.334795,400.454863 404.312932,400.018463 C405.287307,399.574539 406.318114,399.360102 407.382779,399.360102 L455.740383,399.360102 C456.820096,399.360102 457.824568,399.589588 458.810229,400.025987 C459.784605,400.469911 460.646118,401.04927 461.402293,401.771586 C462.162231,402.501427 462.764162,403.34413 463.196799,404.322268 C463.644485,405.296643 463.866447,406.319925 463.866447,407.392114 L463.866447,424.705145 L447.738467,424.705145 L447.738467,423.602859 C447.738467,422.534432 447.508981,421.514912 447.06882,420.540537 C446.628658,419.566162 446.030489,418.697124 445.319459,417.948473 C444.589618,417.192297 443.746915,416.594129 442.761253,416.153967 C441.786878,415.721329 440.756072,415.491843 439.691407,415.491843 L423.518282,415.491843 C422.446093,415.491843 421.419049,415.721329 420.440912,416.153967 C419.470299,416.597891 418.608785,417.19606 417.890231,417.948473 C417.167914,418.697124 416.581031,419.566162 416.14087,420.540537 C415.700708,421.514912 415.471222,422.534432 415.471222,423.602859 L415.471222,455.764767 C415.471222,456.821907 415.700708,457.84519 416.14087,458.819565 C416.581031,459.79394 417.171676,460.662977 417.890231,461.415391 C418.612547,462.167804 419.470299,462.765973 420.440912,463.209897 C421.415287,463.642534 422.446093,463.868258 423.518282,463.868258 L439.691407,463.868258 C440.756072,463.868258 441.783116,463.642534 442.761253,463.209897 C443.746915,462.762211 444.59338,462.164042 445.319459,461.415391 C446.034251,460.662977 446.628658,459.79394 447.06882,458.819565 C447.508981,457.84519 447.738467,456.821907 447.738467,455.764767 L447.738467,454.654957 L463.858923,454.654957 L463.858923,471.964226 C463.858923,473.032653 463.636961,474.059697 463.189275,475.037834 C462.752875,476.008447 462.150945,476.862436 461.394769,477.580991 C460.638594,478.318356 459.780843,478.89019 458.802705,479.337876 C457.820806,479.774276 456.812572,480 455.732859,480 L407.375254,480 C406.856089,480 406.34821,479.939807 405.847855,479.845755 L386.074433,479.845755 L386.074433,480 L329.590765,480 C329.064075,480 328.559958,479.939807 328.055841,479.845755 L309.569046,479.845755 L309.569046,480 L269.194547,480 C268.12612,480 267.1066,479.774276 266.128462,479.341638 C265.150325,478.897714 264.30386,478.314594 263.577781,477.580991 C262.859227,476.858674 262.28363,476.004685 261.832182,475.03031 C261.392021,474.055935 261.181345,473.025128 261.181345,471.952939 L261.181345,350.73539 L277.309325,350.73539 Z M63.8684739,350.73539 C64.9369008,350.73539 65.963945,350.957352 66.9307961,351.401276 C67.9089334,351.837676 68.7742087,352.42832 69.5266221,353.158161 C70.2940837,353.891764 70.8884902,354.738229 71.328652,355.720129 C71.7725759,356.702028 71.9907757,357.732834 71.9907757,358.805023 L71.9907757,380.384237 C71.9907757,381.456426 71.8064345,382.961253 71.3700347,383.935628 C70.9261109,384.92129 70.2940837,386.256824 69.5303841,387.265057 C69.2243776,387.676138 58.4575758,403.064376 47.5032456,418.768533 L46.1616604,420.692073 C35.2091367,436.397593 24.4884018,451.820616 24.2727225,452.299903 C23.8287986,453.274279 23.6105988,454.305085 23.6105988,455.365988 L23.6105988,455.840008 C23.6105988,456.904673 23.8287986,457.920431 24.2727225,458.898568 C24.7128843,459.880468 25.2960046,460.734457 26.0145593,461.460536 C26.7406382,462.186614 27.5983894,462.762211 28.5727647,463.206135 C29.5471399,463.657583 30.570422,463.87202 31.642611,463.87202 L84.0557234,463.87202 L84.0557234,407.395876 C84.0557234,406.323687 84.2663992,405.296643 84.710323,404.318505 C85.1504848,403.340368 85.7411293,402.493903 86.459684,401.767824 C87.1857629,401.041745 88.0359899,400.466149 89.0103652,400.022225 C89.9847405,399.585826 91.0155467,399.35634 92.0802116,399.35634 L140.437816,399.35634 C141.513767,399.35634 142.533287,399.585826 143.507663,400.022225 C144.482038,400.466149 145.351075,401.045507 146.107251,401.767824 C146.863426,402.497665 147.461595,403.34413 147.901756,404.318505 C148.341918,405.292881 148.56388,406.316163 148.56388,407.388352 L148.56388,447.744041 L100.183703,447.744041 L100.183703,455.806149 C100.183703,456.885863 100.394379,457.912907 100.838303,458.894806 C101.282227,459.872943 101.865347,460.723171 102.591426,461.449249 C103.317505,462.182852 104.171494,462.765973 105.138345,463.209897 C106.124006,463.650058 107.139764,463.875782 108.215715,463.875782 L160.621304,463.875782 L160.621304,407.399638 C160.621304,406.327449 160.835741,405.300405 161.283427,404.322268 C161.727351,403.34413 162.302947,402.497665 163.029026,401.771586 C163.747581,401.045507 164.60157,400.469911 165.587232,400.025987 C166.561607,399.589588 167.577365,399.360102 168.653316,399.360102 L217.01092,399.360102 C218.083109,399.360102 219.098867,399.589588 220.077005,400.025987 C221.047618,400.469911 221.920417,401.04927 222.672831,401.771586 C223.432768,402.501427 224.027175,403.34413 224.467337,404.314743 C224.907498,405.289119 225.136984,406.319925 225.136984,407.392114 L225.136984,479.988714 L209.012767,479.988714 L209.012767,423.602859 C209.012767,422.534432 208.783281,421.514912 208.339357,420.540537 C207.899195,419.558637 207.316075,418.697124 206.589996,417.948473 C205.860155,417.184773 205.01369,416.586605 204.039315,416.146443 C203.061177,415.713805 202.041657,415.484319 200.965706,415.484319 L184.796344,415.484319 C183.720393,415.484319 182.693349,415.713805 181.718973,416.146443 C180.740836,416.590367 179.890609,417.188535 179.16453,417.948473 C178.438451,418.697124 177.855331,419.554875 177.411407,420.540537 C176.975007,421.51115 176.749283,422.534432 176.749283,423.602859 L176.749283,473.348666 C176.222594,479.616269 170.169429,479.966141 170.169429,479.966141 L170.161905,479.992476 L160.621304,479.992476 L160.621304,479.838231 L148.56388,479.838231 L148.56388,479.992476 L92.0802116,479.992476 C91.5610464,479.992476 91.0494053,479.932283 90.5490504,479.838231 L71.9907757,479.838231 L71.9907757,479.992476 L15.5146314,479.992476 C14.4386803,479.992476 13.4191602,479.778038 12.444785,479.334114 C11.4591235,478.897714 10.6126585,478.30707 9.88657967,477.588515 C9.16802494,476.858674 8.58490461,476.008447 8.14474281,475.03031 C7.70081895,474.055935 7.48261909,473.028891 7.48261909,471.956702 L7.48261909,450.682215 C7.48261909,449.602502 7.65943622,447.514555 8.10336008,446.543941 C8.54352188,445.565804 9.25831454,444.316798 9.89034173,443.451523 C10.5035586,442.62763 54.7680347,379.372242 55.2006723,378.394104 C55.637072,377.412205 55.8665581,376.381399 55.8665581,375.301685 L55.8665581,375.030817 C55.8665581,373.951104 55.6408341,372.927821 55.2006723,371.945922 C54.7680347,370.967785 54.1811523,370.087461 53.4550734,369.33881 C52.7289945,368.567586 51.8825295,367.965656 50.8968681,367.529256 C49.9262549,367.085332 48.8992107,366.855846 47.8383079,366.855846 L7.48638115,366.855846 L7.48638115,350.73539 Z M124.396364,415.491843 L108.22324,415.491843 C107.143526,415.491843 106.13153,415.721329 105.145869,416.153967 C104.167732,416.597891 103.313743,417.19606 102.591426,417.948473 C101.869109,418.697124 101.285989,419.562399 100.845827,420.540537 C100.401903,421.514912 100.183703,422.534432 100.183703,423.602859 L100.183703,431.619823 L132.4359,431.619823 L132.4359,423.602859 C132.4359,422.534432 132.213938,421.518674 131.773777,420.540537 C131.333615,419.566162 130.746732,418.697124 130.020654,417.948473 C129.298337,417.192297 128.44811,416.594129 127.46621,416.153967 C126.499359,415.721329 125.468553,415.491843 124.396364,415.491843 Z M361.910679,415.491843 L345.741317,415.491843 C344.665366,415.491843 343.642084,415.721329 342.667708,416.153967 C341.689571,416.597891 340.835582,417.19606 340.109503,417.948473 C339.379662,418.697124 338.800304,419.562399 338.360142,420.540537 C337.912456,421.514912 337.698018,422.534432 337.698018,423.602859 L337.70178,431.619823 L369.950215,431.619823 L369.950215,423.602859 C369.950215,422.534432 369.735778,421.518674 369.288092,420.540537 C368.844168,419.566162 368.261048,418.697124 367.538731,417.948473 C366.812652,417.192297 365.966187,416.594129 364.98805,416.153967 C364.013674,415.721329 362.982868,415.491843 361.910679,415.491843 Z M515.015505,357.112093 C527.592094,357.112093 537.821153,367.348677 537.821153,379.917741 C537.821153,392.498092 527.595856,402.723389 515.015505,402.723389 C502.442678,402.723389 492.213619,392.498092 492.213619,379.917741 C492.213619,367.348677 502.442678,357.112093 515.015505,357.112093 Z M515.015505,359.794447 C503.917408,359.794447 494.895973,368.827169 494.895973,379.917741 C494.895973,391.015838 503.917408,400.041036 515.015505,400.041036 C526.113602,400.041036 535.135037,391.015838 535.135037,379.917741 C535.135037,368.823407 526.113602,359.794447 515.015505,359.794447 Z M517.223838,373.067018 L520.985905,381.415044 L524.616299,373.067018 L527.38518,373.067018 L527.38518,388.07014 L525.391285,388.07014 L525.391285,375.136155 L521.467449,383.931866 L520.263588,383.931866 L516.362325,375.136155 L516.362325,388.07014 L514.49634,388.07014 L514.49634,373.067018 L517.223838,373.067018 Z M512.573924,373.063256 L512.573924,374.823903 L507.547803,374.823903 L507.547803,388.07014 L505.565194,388.07014 L505.565194,374.823903 L500.531548,374.823903 L500.531548,373.063256 L512.573924,373.063256 Z M266.312804,166.029202 C289.073307,166.02168 308.590909,179.719365 317.243662,199.319732 L321.521132,209.082295 L331.460512,205.19608 C338.909404,202.288003 346.918844,200.647742 355.30449,200.647742 C373.433889,200.651504 389.749972,207.968723 401.641865,219.838044 C413.518709,231.737461 420.828405,248.046019 420.835929,266.182943 L420.813356,266.634391 L420.719305,268.225745 L420.45596,276.840877 L428.736269,279.244838 C445.026017,284.007614 457.512316,297.592437 460.75898,314.465306 L232.747645,314.465306 L16.9555029,314.469068 C23.0989577,287.51386 47.1460876,267.390566 75.9146112,267.401852 C87.7651211,267.409376 98.6939247,270.832857 108.057709,276.716729 L120.058701,284.263435 L124.543085,270.832857 C131.939308,248.749526 152.736012,232.787077 177.283497,232.802125 C183.825731,232.802125 190.063237,233.987176 196.011065,236.097696 L211.928368,241.755844 L210.856179,224.901785 C210.74708,223.366862 210.649266,222.298435 210.668076,221.673932 C210.668076,206.275794 216.871724,192.431388 226.954063,182.334001 C237.066498,172.236615 250.895855,166.040491 266.312804,166.029202 Z M232.807838,79.7574925 C298.937446,79.7574925 355.707031,121.313281 380.171751,180.595927 C372.290221,178.263445 363.949719,176.965532 355.30449,176.965532 C347.53206,176.965532 340.022975,178.07158 332.878811,179.986472 C319.256368,157.462979 294.573448,142.354519 266.316566,142.350757 C226.720814,142.354519 194.141317,171.879218 189.149055,210.105577 C185.285413,209.499885 181.335243,209.119916 177.287259,209.119916 C147.457832,209.131202 121.593624,225.910019 108.527967,250.536507 C98.5321559,246.221417 87.5205868,243.712119 75.9183733,243.719643 C74.8123257,243.719643 73.7250884,243.832505 72.626565,243.87765 C73.7062781,153.068885 144.971106,79.7574925 232.807838,79.7574925 Z M298.207605,24.2218648 C305.231383,52.5690369 332.893859,66.3081042 359.736205,54.7623217 C386.601122,43.2428737 401.92402,56.7336447 393.82429,84.81371 C385.735847,112.9013 402.83444,138.663932 431.821163,142.061078 C460.853032,145.492083 467.376455,164.85544 446.316406,185.106645 C442.328616,188.955239 439.160955,193.187564 436.824712,197.619278 C433.137887,198.894619 429.067331,200.177483 425.290216,201.321152 C418.270199,158.456164 397.006999,117.649028 361.891869,86.6947434 C281.131584,15.4562495 157.908854,23.2061068 86.6891701,103.955105 C54.335397,140.646541 38.4256172,186.077258 38.1096036,231.436495 L28.4109958,226.869346 C25.2847184,221.406826 20.8868625,216.369418 15.2211902,212.133331 C-8.18262639,194.684866 -4.14592889,174.651861 24.2200536,167.624321 C52.5747498,160.641925 66.3288654,132.930542 54.7680347,106.091959 C43.2335383,79.2420893 56.7581679,63.9380023 84.8118988,72.0377317 C112.876916,80.1186509 138.632024,63.0463925 142.055505,34.0070001 C145.460175,5.02403872 164.83858,-1.5031469 185.093547,19.5268056 C205.348514,40.5830926 236.212509,38.6418662 253.683546,15.2342876 C271.143297,-8.19586344 291.202637,-4.13659354 298.207605,24.2218648 Z"></path></clipPath></defs><g clip-path="url(#i0)"><g transform="translate(0.16903494265443442 0.41555350102191824)"><g clip-path="url(#i1)"><polygon points="-3.01980663e-14,-1.59872116e-14 537.821153,-1.59872116e-14 537.821153,480 -3.01980663e-14,480 -3.01980663e-14,-1.59872116e-14" stroke="none" fill="#21438A"></polygon></g></g></g></svg>